<?xml version="1.0" encoding="UTF-8" standalone="no"?>
<!DOCTYPE svg PUBLIC "-//W3C//DTD SVG 1.1//EN"
 "http://www.w3.org/Graphics/SVG/1.1/DTD/svg11.dtd">
<!-- Generated by graphviz version 14.0.5 (20251129.0259)
 -->
<!-- Title: snakemake_dag Pages: 1 -->
<svg width="948pt" height="332pt"
 viewBox="0.00 0.00 948.00 332.00" xmlns="http://www.w3.org/2000/svg" xmlns:xlink="http://www.w3.org/1999/xlink">
<g id="graph0" class="graph" transform="scale(1 1) rotate(0) translate(4 328)">
<title>snakemake_dag</title>
<polygon fill="white" stroke="none" points="-4,4 -4,-328 943.5,-328 943.5,4 -4,4"/>
<!-- 0 -->
<g id="node1" class="node">
<title>0</title>
<path fill="none" stroke="#d8b456" stroke-width="2" d="M680,-36C680,-36 650,-36 650,-36 644,-36 638,-30 638,-24 638,-24 638,-12 638,-12 638,-6 644,0 650,0 650,0 680,0 680,0 686,0 692,-6 692,-12 692,-12 692,-24 692,-24 692,-30 686,-36 680,-36"/>
<text xml:space="preserve" text-anchor="middle" x="665" y="-14.12" font-family="sans" font-size="10.00">all</text>
</g>
<!-- 1 -->
<g id="node2" class="node">
<title>1</title>
<path fill="none" stroke="#56d8c1" stroke-width="2" d="M494.12,-108C494.12,-108 427.88,-108 427.88,-108 421.88,-108 415.88,-102 415.88,-96 415.88,-96 415.88,-84 415.88,-84 415.88,-78 421.88,-72 427.88,-72 427.88,-72 494.12,-72 494.12,-72 500.12,-72 506.12,-78 506.12,-84 506.12,-84 506.12,-96 506.12,-96 506.12,-102 500.12,-108 494.12,-108"/>
<text xml:space="preserve" text-anchor="middle" x="461" y="-86.12" font-family="sans" font-size="10.00">energyscope_dat</text>
</g>
<!-- 1&#45;&gt;0 -->
<g id="edge2" class="edge">
<title>1&#45;&gt;0</title>
<path fill="none" stroke="grey" stroke-width="2" d="M507.04,-73.2C542.46,-61.05 590.94,-44.41 624.81,-32.79"/>
<polygon fill="grey" stroke="grey" stroke-width="2" points="625.84,-36.14 634.16,-29.58 623.57,-29.52 625.84,-36.14"/>
</g>
<!-- 2 -->
<g id="node3" class="node">
<title>2</title>
<path fill="none" stroke="#d8d356" stroke-width="2" d="M436.5,-180C436.5,-180 357.5,-180 357.5,-180 351.5,-180 345.5,-174 345.5,-168 345.5,-168 345.5,-156 345.5,-156 345.5,-150 351.5,-144 357.5,-144 357.5,-144 436.5,-144 436.5,-144 442.5,-144 448.5,-150 448.5,-156 448.5,-156 448.5,-168 448.5,-168 448.5,-174 442.5,-180 436.5,-180"/>
<text xml:space="preserve" text-anchor="middle" x="397" y="-158.12" font-family="sans" font-size="10.00">assemble_demands</text>
</g>
<!-- 2&#45;&gt;1 -->
<g id="edge6" class="edge">
<title>2&#45;&gt;1</title>
<path fill="none" stroke="grey" stroke-width="2" d="M413.15,-143.34C420.07,-135.77 428.31,-126.75 435.99,-118.35"/>
<polygon fill="grey" stroke="grey" stroke-width="2" points="438.43,-120.88 442.59,-111.14 433.26,-116.15 438.43,-120.88"/>
</g>
<!-- 3 -->
<g id="node4" class="node">
<title>3</title>
<path fill="none" stroke="#d85656" stroke-width="2" d="M553.5,-252C553.5,-252 474.5,-252 474.5,-252 468.5,-252 462.5,-246 462.5,-240 462.5,-240 462.5,-228 462.5,-228 462.5,-222 468.5,-216 474.5,-216 474.5,-216 553.5,-216 553.5,-216 559.5,-216 565.5,-222 565.5,-228 565.5,-228 565.5,-240 565.5,-240 565.5,-246 559.5,-252 553.5,-252"/>
<text xml:space="preserve" text-anchor="middle" x="514" y="-230.12" font-family="sans" font-size="10.00">Demand_timeseries</text>
</g>
<!-- 3&#45;&gt;2 -->
<g id="edge10" class="edge">
<title>3&#45;&gt;2</title>
<path fill="none" stroke="grey" stroke-width="2" d="M484.17,-215.15C470.01,-206.68 452.86,-196.42 437.54,-187.25"/>
<polygon fill="grey" stroke="grey" stroke-width="2" points="439.75,-184.5 429.37,-182.37 436.15,-190.5 439.75,-184.5"/>
</g>
<!-- 13 -->
<g id="node14" class="node">
<title>13</title>
<path fill="none" stroke="#88d856" stroke-width="2" d="M699.12,-180C699.12,-180 614.88,-180 614.88,-180 608.88,-180 602.88,-174 602.88,-168 602.88,-168 602.88,-156 602.88,-156 602.88,-150 608.88,-144 614.88,-144 614.88,-144 699.12,-144 699.12,-144 705.12,-144 711.12,-150 711.12,-156 711.12,-156 711.12,-168 711.12,-168 711.12,-174 705.12,-180 699.12,-180"/>
<text xml:space="preserve" text-anchor="middle" x="657" y="-158.12" font-family="sans" font-size="10.00">assemble_timeseries</text>
</g>
<!-- 3&#45;&gt;13 -->
<g id="edge17" class="edge">
<title>3&#45;&gt;13</title>
<path fill="none" stroke="grey" stroke-width="2" d="M550.45,-215.15C568.27,-206.43 589.95,-195.82 609.08,-186.46"/>
<polygon fill="grey" stroke="grey" stroke-width="2" points="610.45,-189.68 617.89,-182.14 607.37,-183.4 610.45,-189.68"/>
</g>
<!-- 4 -->
<g id="node5" class="node">
<title>4</title>
<path fill="none" stroke="#56b1d8" stroke-width="2" d="M432.38,-252C432.38,-252 361.62,-252 361.62,-252 355.62,-252 349.62,-246 349.62,-240 349.62,-240 349.62,-228 349.62,-228 349.62,-222 355.62,-216 361.62,-216 361.62,-216 432.38,-216 432.38,-216 438.38,-216 444.38,-222 444.38,-228 444.38,-228 444.38,-240 444.38,-240 444.38,-246 438.38,-252 432.38,-252"/>
<text xml:space="preserve" text-anchor="middle" x="397" y="-230.12" font-family="sans" font-size="10.00">mobility_demands</text>
</g>
<!-- 4&#45;&gt;2 -->
<g id="edge8" class="edge">
<title>4&#45;&gt;2</title>
<path fill="none" stroke="grey" stroke-width="2" d="M397,-215.34C397,-208.75 397,-201.08 397,-193.67"/>
<polygon fill="grey" stroke="grey" stroke-width="2" points="400.5,-193.93 397,-183.93 393.5,-193.93 400.5,-193.93"/>
</g>
<!-- 5 -->
<g id="node6" class="node">
<title>5</title>
<path fill="none" stroke="#56d8a2" stroke-width="2" d="M319.5,-252C319.5,-252 252.5,-252 252.5,-252 246.5,-252 240.5,-246 240.5,-240 240.5,-240 240.5,-228 240.5,-228 240.5,-222 246.5,-216 252.5,-216 252.5,-216 319.5,-216 319.5,-216 325.5,-216 331.5,-222 331.5,-228 331.5,-228 331.5,-240 331.5,-240 331.5,-246 325.5,-252 319.5,-252"/>
<text xml:space="preserve" text-anchor="middle" x="286" y="-230.12" font-family="sans" font-size="10.00">energy_reference</text>
</g>
<!-- 5&#45;&gt;2 -->
<g id="edge9" class="edge">
<title>5&#45;&gt;2</title>
<path fill="none" stroke="grey" stroke-width="2" d="M314.3,-215.15C327.61,-206.76 343.69,-196.62 358.12,-187.52"/>
<polygon fill="grey" stroke="grey" stroke-width="2" points="359.6,-190.72 366.19,-182.43 355.87,-184.8 359.6,-190.72"/>
</g>
<!-- 6 -->
<g id="node7" class="node">
<title>6</title>
<path fill="none" stroke="#bed856" stroke-width="2" d="M210,-180C210,-180 128,-180 128,-180 122,-180 116,-174 116,-168 116,-168 116,-156 116,-156 116,-150 122,-144 128,-144 128,-144 210,-144 210,-144 216,-144 222,-150 222,-156 222,-156 222,-168 222,-168 222,-174 216,-180 210,-180"/>
<text xml:space="preserve" text-anchor="middle" x="169" y="-158.12" font-family="sans" font-size="10.00">assemble_resources</text>
</g>
<!-- 6&#45;&gt;1 -->
<g id="edge7" class="edge">
<title>6&#45;&gt;1</title>
<path fill="none" stroke="grey" stroke-width="2" d="M222.9,-148.08C273.9,-135.85 350.24,-117.55 402.65,-104.99"/>
<polygon fill="grey" stroke="grey" stroke-width="2" points="403.25,-108.44 412.16,-102.71 401.62,-101.64 403.25,-108.44"/>
</g>
<!-- 7 -->
<g id="node8" class="node">
<title>7</title>
<path fill="none" stroke="#68d856" stroke-width="2" d="M85.38,-252C85.38,-252 14.62,-252 14.62,-252 8.62,-252 2.62,-246 2.62,-240 2.62,-240 2.62,-228 2.62,-228 2.62,-222 8.62,-216 14.62,-216 14.62,-216 85.38,-216 85.38,-216 91.38,-216 97.38,-222 97.38,-228 97.38,-228 97.38,-240 97.38,-240 97.38,-246 91.38,-252 85.38,-252"/>
<text xml:space="preserve" text-anchor="middle" x="50" y="-230.12" font-family="sans" font-size="10.00">biomass_mapping</text>
</g>
<!-- 7&#45;&gt;6 -->
<g id="edge12" class="edge">
<title>7&#45;&gt;6</title>
<path fill="none" stroke="grey" stroke-width="2" d="M80.34,-215.15C94.74,-206.68 112.18,-196.42 127.77,-187.25"/>
<polygon fill="grey" stroke="grey" stroke-width="2" points="129.26,-190.43 136.11,-182.35 125.72,-184.4 129.26,-190.43"/>
</g>
<!-- 8 -->
<g id="node9" class="node">
<title>8</title>
<path fill="none" stroke="#56d863" stroke-width="2" d="M88,-324C88,-324 12,-324 12,-324 6,-324 0,-318 0,-312 0,-312 0,-300 0,-300 0,-294 6,-288 12,-288 12,-288 88,-288 88,-288 94,-288 100,-294 100,-300 100,-300 100,-312 100,-312 100,-318 94,-324 88,-324"/>
<text xml:space="preserve" text-anchor="middle" x="50" y="-302.12" font-family="sans" font-size="10.00">biomass_potentials</text>
</g>
<!-- 8&#45;&gt;7 -->
<g id="edge13" class="edge">
<title>8&#45;&gt;7</title>
<path fill="none" stroke="grey" stroke-width="2" d="M50,-287.34C50,-280.75 50,-273.08 50,-265.67"/>
<polygon fill="grey" stroke="grey" stroke-width="2" points="53.5,-265.93 50,-255.93 46.5,-265.93 53.5,-265.93"/>
</g>
<!-- 9 -->
<g id="node10" class="node">
<title>9</title>
<path fill="none" stroke="#56d882" stroke-width="2" d="M210.75,-252C210.75,-252 127.25,-252 127.25,-252 121.25,-252 115.25,-246 115.25,-240 115.25,-240 115.25,-228 115.25,-228 115.25,-222 121.25,-216 127.25,-216 127.25,-216 210.75,-216 210.75,-216 216.75,-216 222.75,-222 222.75,-228 222.75,-228 222.75,-240 222.75,-240 222.75,-246 216.75,-252 210.75,-252"/>
<text xml:space="preserve" text-anchor="middle" x="169" y="-230.12" font-family="sans" font-size="10.00">electricity_capacities</text>
</g>
<!-- 9&#45;&gt;6 -->
<g id="edge11" class="edge">
<title>9&#45;&gt;6</title>
<path fill="none" stroke="grey" stroke-width="2" d="M169,-215.34C169,-208.75 169,-201.08 169,-193.67"/>
<polygon fill="grey" stroke="grey" stroke-width="2" points="172.5,-193.93 169,-183.93 165.5,-193.93 172.5,-193.93"/>
</g>
<!-- 10 -->
<g id="node11" class="node">
<title>10</title>
<path fill="none" stroke="#9fd856" stroke-width="2" d="M573,-180C573,-180 479,-180 479,-180 473,-180 467,-174 467,-168 467,-168 467,-156 467,-156 467,-150 473,-144 479,-144 479,-144 573,-144 573,-144 579,-144 585,-150 585,-156 585,-156 585,-168 585,-168 585,-174 579,-180 573,-180"/>
<text xml:space="preserve" text-anchor="middle" x="526" y="-158.12" font-family="sans" font-size="10.00">assemble_technologies</text>
</g>
<!-- 10&#45;&gt;1 -->
<g id="edge5" class="edge">
<title>10&#45;&gt;1</title>
<path fill="none" stroke="grey" stroke-width="2" d="M509.6,-143.34C502.57,-135.77 494.2,-126.75 486.4,-118.35"/>
<polygon fill="grey" stroke="grey" stroke-width="2" points="489.05,-116.07 479.68,-111.12 483.92,-120.83 489.05,-116.07"/>
</g>
<!-- 11 -->
<g id="node12" class="node">
<title>11</title>
<path fill="none" stroke="#d89556" stroke-width="2" d="M680.12,-252C680.12,-252 595.88,-252 595.88,-252 589.88,-252 583.88,-246 583.88,-240 583.88,-240 583.88,-228 583.88,-228 583.88,-222 589.88,-216 595.88,-216 595.88,-216 680.12,-216 680.12,-216 686.12,-216 692.12,-222 692.12,-228 692.12,-228 692.12,-240 692.12,-240 692.12,-246 686.12,-252 680.12,-252"/>
<text xml:space="preserve" text-anchor="middle" x="638" y="-230.12" font-family="sans" font-size="10.00">aggregate_capacities</text>
</g>
<!-- 11&#45;&gt;10 -->
<g id="edge14" class="edge">
<title>11&#45;&gt;10</title>
<path fill="none" stroke="grey" stroke-width="2" d="M609.45,-215.15C596.02,-206.76 579.79,-196.62 565.24,-187.52"/>
<polygon fill="grey" stroke="grey" stroke-width="2" points="567.4,-184.75 557.07,-182.42 563.69,-190.68 567.4,-184.75"/>
</g>
<!-- 12 -->
<g id="node13" class="node">
<title>12</title>
<path fill="none" stroke="#5673d8" stroke-width="2" d="M631.38,-108C631.38,-108 584.62,-108 584.62,-108 578.62,-108 572.62,-102 572.62,-96 572.62,-96 572.62,-84 572.62,-84 572.62,-78 578.62,-72 584.62,-72 584.62,-72 631.38,-72 631.38,-72 637.38,-72 643.38,-78 643.38,-84 643.38,-84 643.38,-96 643.38,-96 643.38,-102 637.38,-108 631.38,-108"/>
<text xml:space="preserve" text-anchor="middle" x="608" y="-86.12" font-family="sans" font-size="10.00">typical_days</text>
</g>
<!-- 12&#45;&gt;0 -->
<g id="edge3" class="edge">
<title>12&#45;&gt;0</title>
<path fill="none" stroke="grey" stroke-width="2" d="M622.38,-71.34C628.41,-63.93 635.57,-55.14 642.28,-46.9"/>
<polygon fill="grey" stroke="grey" stroke-width="2" points="644.91,-49.21 648.51,-39.25 639.48,-44.79 644.91,-49.21"/>
</g>
<!-- 13&#45;&gt;12 -->
<g id="edge15" class="edge">
<title>13&#45;&gt;12</title>
<path fill="none" stroke="grey" stroke-width="2" d="M644.64,-143.34C639.57,-136.1 633.57,-127.53 627.92,-119.45"/>
<polygon fill="grey" stroke="grey" stroke-width="2" points="630.87,-117.57 622.27,-111.38 625.13,-121.58 630.87,-117.57"/>
</g>
<!-- 14 -->
<g id="node15" class="node">
<title>14</title>
<path fill="none" stroke="#d87556" stroke-width="2" d="M784.25,-252C784.25,-252 721.75,-252 721.75,-252 715.75,-252 709.75,-246 709.75,-240 709.75,-240 709.75,-228 709.75,-228 709.75,-222 715.75,-216 721.75,-216 721.75,-216 784.25,-216 784.25,-216 790.25,-216 796.25,-222 796.25,-228 796.25,-228 796.25,-240 796.25,-240 796.25,-246 790.25,-252 784.25,-252"/>
<text xml:space="preserve" text-anchor="middle" x="753" y="-230.12" font-family="sans" font-size="10.00">RET_timeseries</text>
</g>
<!-- 14&#45;&gt;13 -->
<g id="edge16" class="edge">
<title>14&#45;&gt;13</title>
<path fill="none" stroke="grey" stroke-width="2" d="M728.53,-215.15C717.36,-207.01 703.93,-197.22 691.73,-188.33"/>
<polygon fill="grey" stroke="grey" stroke-width="2" points="694.02,-185.66 683.87,-182.6 689.89,-191.32 694.02,-185.66"/>
</g>
<!-- 15 -->
<g id="node16" class="node">
<title>15</title>
<path fill="none" stroke="#56d0d8" stroke-width="2" d="M770.5,-108C770.5,-108 673.5,-108 673.5,-108 667.5,-108 661.5,-102 661.5,-96 661.5,-96 661.5,-84 661.5,-84 661.5,-78 667.5,-72 673.5,-72 673.5,-72 770.5,-72 770.5,-72 776.5,-72 782.5,-78 782.5,-84 782.5,-84 782.5,-96 782.5,-96 782.5,-102 776.5,-108 770.5,-108"/>
<text xml:space="preserve" text-anchor="middle" x="722" y="-86.12" font-family="sans" font-size="10.00">hydro_inflow_timeseries</text>
</g>
<!-- 15&#45;&gt;0 -->
<g id="edge4" class="edge">
<title>15&#45;&gt;0</title>
<path fill="none" stroke="grey" stroke-width="2" d="M707.62,-71.34C701.59,-63.93 694.43,-55.14 687.72,-46.9"/>
<polygon fill="grey" stroke="grey" stroke-width="2" points="690.52,-44.79 681.49,-39.25 685.09,-49.21 690.52,-44.79"/>
</g>
<!-- 16 -->
<g id="node17" class="node">
<title>16</title>
<path fill="none" stroke="#5692d8" stroke-width="2" d="M927.5,-108C927.5,-108 812.5,-108 812.5,-108 806.5,-108 800.5,-102 800.5,-96 800.5,-96 800.5,-84 800.5,-84 800.5,-78 806.5,-72 812.5,-72 812.5,-72 927.5,-72 927.5,-72 933.5,-72 939.5,-78 939.5,-84 939.5,-84 939.5,-96 939.5,-96 939.5,-102 933.5,-108 927.5,-108"/>
<text xml:space="preserve" text-anchor="middle" x="870" y="-86.12" font-family="sans" font-size="10.00">temperature_cop_timeseries</text>
</g>
<!-- 16&#45;&gt;0 -->
<g id="edge1" class="edge">
<title>16&#45;&gt;0</title>
<path fill="none" stroke="grey" stroke-width="2" d="M817.47,-71.06C782.39,-59.08 736.96,-43.57 704.85,-32.61"/>
<polygon fill="grey" stroke="grey" stroke-width="2" points="706.28,-29.4 695.68,-29.48 704.02,-36.02 706.28,-29.4"/>
</g>
</g>
</svg>
